# xmcd CD database file
#
# Track frame offsets:
#	150
#	11956
#	31701
#	49696
#	54629
#	83794
#	102483
#	124650
#	152417
#	174205
#	176852
#	189068
#	196273
#	200826
#	216449
#	230255
#	252749
#	275318
#	296506
#	317728
#
# Disc length: 4409 seconds
#
# Revision: 1
# Processed by: cddbd v1.5.2PL0 Copyright (c) Steve Scherf et al.
# Submitted via: CDex 1.51
#
DISCID=1b113714
DTITLE=Mauro Campobasso- Mauro Manzoni - Transitions
DYEAR=2007
DGENRE=Jazz
TTITLE0=Transition 1 - Opening
TTITLE1=Part 1
TTITLE2=Part 2
TTITLE3=Part 3 prelude
TTITLE4=Part 3
TTITLE5=Part 4
TTITLE6=Intermission: The Passage
TTITLE7=Transition 2- Part 1
TTITLE8=Part 2
TTITLE9=Part 3
TTITLE10=Part 4
TTITLE11=Part 5 a
TTITLE12=Part 5 b
TTITLE13=Part 5 c
TTITLE14=Part 5 d
TTITLE15=Part 6
TTITLE16=Part 7
TTITLE17=Part 8
TTITLE18=Part 9
TTITLE19=Patrt 10 epilogue
EXTD=YEAR: 2007
EXTT0=
EXTT1=
EXTT2=
EXTT3=
EXTT4=
EXTT5=
EXTT6=
EXTT7=
EXTT8=
EXTT9=
EXTT10=
EXTT11=
EXTT12=
EXTT13=
EXTT14=
EXTT15=
EXTT16=
EXTT17=
EXTT18=
EXTT19=
PLAYORDER=
